<svg width="342" height="200" viewBox="0 0 342 200" fill="none" xmlns="http://www.w3.org/2000/svg">
<g clip-path="url(#clip0_1308_4096)">
<rect x="0.361328" width="341.333" height="200" rx="16" fill="#C8D0FF"/>
<g opacity="0.8">
<ellipse cx="257.161" cy="8.76247" rx="18.6817" ry="18.6629" fill="#AAB6FF"/>
<ellipse cx="275.843" cy="26.6788" rx="15.6926" ry="15.6768" fill="#AAB6FF"/>
<ellipse cx="240.721" cy="30.4112" rx="15.6926" ry="15.6768" fill="#AAB6FF"/>
<ellipse cx="259.403" cy="28.918" rx="15.6926" ry="15.6768" fill="#AAB6FF"/>
<path d="M256.189 39.42L254.688 71.7141H262.565L259.9 39.42L264.44 32.2436L258.626 36.8784L256.189 27.0107V36.8784L249.25 33.1406L256.189 39.42Z" fill="#AAB6FF"/>
<path fill-rule="evenodd" clip-rule="evenodd" d="M256.192 26.8074C256.394 26.789 256.579 26.9201 256.628 27.1163L258.93 36.3177L263.969 32.0301C264.118 31.9032 264.336 31.8993 264.49 32.0208C264.643 32.1424 264.69 32.3555 264.6 32.5297L260.745 40.0287V42.5954C260.745 42.8219 260.561 43.0055 260.335 43.0055C260.108 43.0055 259.924 42.8219 259.924 42.5954V39.9296C259.924 39.8644 259.94 39.8002 259.969 39.7422L262.922 33.9981L258.959 37.3709C258.851 37.463 258.703 37.4926 258.567 37.4493C258.432 37.406 258.329 37.2959 258.294 37.1582L256.474 29.8835L256.023 37.0843C256.014 37.229 255.929 37.3581 255.8 37.424C255.671 37.4899 255.516 37.4828 255.394 37.4052L249.236 33.5091C249.044 33.3879 248.987 33.1345 249.109 32.9431C249.23 32.7518 249.484 32.6949 249.675 32.8161L255.247 36.3414L255.82 27.1902C255.832 26.9884 255.99 26.8258 256.192 26.8074Z" fill="white" fill-opacity="0.3"/>
</g>
<g opacity="0.8">
<ellipse cx="-14.157" cy="30.6788" rx="15.6926" ry="15.6768" fill="#AAB6FF"/>
</g>
<g opacity="0.8">
<ellipse cx="344.721" cy="33.4112" rx="15.6926" ry="15.6768" fill="#AAB6FF"/>
</g>
<g opacity="0.8">
<ellipse cx="133.161" cy="10.7625" rx="18.6817" ry="18.6629" fill="#AAB6FF"/>
<ellipse cx="151.843" cy="28.6788" rx="15.6926" ry="15.6768" fill="#AAB6FF"/>
<ellipse cx="116.721" cy="32.4112" rx="15.6926" ry="15.6768" fill="#AAB6FF"/>
<ellipse cx="135.403" cy="30.918" rx="15.6926" ry="15.6768" fill="#AAB6FF"/>
<path d="M132.189 41.42L130.688 73.7141H138.565L135.9 41.42L140.44 34.2436L134.626 38.8784L132.189 29.0107V38.8784L125.25 35.1406L132.189 41.42Z" fill="#AAB6FF"/>
<path fill-rule="evenodd" clip-rule="evenodd" d="M132.192 28.8074C132.394 28.789 132.579 28.9201 132.628 29.1163L134.93 38.3177L139.969 34.0301C140.118 33.9032 140.336 33.8993 140.49 34.0208C140.643 34.1424 140.69 34.3555 140.6 34.5297L136.745 42.0287V44.5954C136.745 44.8219 136.561 45.0055 136.335 45.0055C136.108 45.0055 135.924 44.8219 135.924 44.5954V41.9296C135.924 41.8644 135.94 41.8002 135.969 41.7422L138.922 35.9981L134.959 39.3709C134.851 39.463 134.703 39.4926 134.567 39.4493C134.432 39.406 134.329 39.2959 134.294 39.1582L132.474 31.8835L132.023 39.0843C132.014 39.229 131.929 39.3581 131.8 39.424C131.671 39.4899 131.516 39.4828 131.394 39.4052L125.236 35.5091C125.044 35.3879 124.987 35.1345 125.109 34.9431C125.23 34.7518 125.484 34.6949 125.675 34.8161L131.247 38.3414L131.82 29.1902C131.832 28.9884 131.99 28.8258 132.192 28.8074Z" fill="white" fill-opacity="0.3"/>
</g>
<g opacity="0.8">
<ellipse cx="17.1612" cy="9.76247" rx="18.6817" ry="18.6629" fill="#AAB6FF"/>
<ellipse cx="35.843" cy="27.6788" rx="15.6926" ry="15.6768" fill="#AAB6FF"/>
<ellipse cx="0.720922" cy="31.4112" rx="15.6926" ry="15.6768" fill="#AAB6FF"/>
<ellipse cx="19.4026" cy="29.918" rx="15.6926" ry="15.6768" fill="#AAB6FF"/>
<path d="M16.1886 40.42L14.6883 72.7141H22.5645L19.8998 40.42L24.4398 33.2436L18.6264 37.8784L16.1886 28.0107V37.8784L9.25 34.1406L16.1886 40.42Z" fill="#AAB6FF"/>
<path fill-rule="evenodd" clip-rule="evenodd" d="M16.1919 27.8074C16.3935 27.789 16.5785 27.9201 16.6276 28.1163L18.9303 37.3177L23.9686 33.0301C24.1178 32.9032 24.336 32.8993 24.4897 33.0208C24.6433 33.1424 24.6895 33.3555 24.6 33.5297L20.7452 41.0287V43.5954C20.7452 43.8219 20.5614 44.0055 20.3347 44.0055C20.108 44.0055 19.9242 43.8219 19.9242 43.5954V40.9296C19.9242 40.8644 19.9397 40.8002 19.9695 40.7422L22.9222 34.9981L18.9588 38.3709C18.8506 38.463 18.7026 38.4926 18.5673 38.4493C18.432 38.406 18.3287 38.2959 18.2943 38.1582L16.4738 30.8835L16.0233 38.0843C16.0142 38.229 15.9294 38.3581 15.8002 38.424C15.6709 38.4899 15.5165 38.4828 15.3939 38.4052L9.23585 34.5091C9.0443 34.3879 8.98737 34.1345 9.10868 33.9431C9.23 33.7518 9.48362 33.6949 9.67517 33.8161L15.2471 37.3414L15.8196 28.1902C15.8322 27.9884 15.9903 27.8258 16.1919 27.8074Z" fill="white" fill-opacity="0.3"/>
</g>
<rect x="0.0283203" y="61.0996" width="342" height="31" fill="#AAB6FF"/>
<path fill-rule="evenodd" clip-rule="evenodd" d="M330.099 46.5462C334.36 46.0684 344.098 45.1129 348.971 45.1129C350.096 45.1129 351.086 45.1088 351.97 45.1052C355.873 45.0891 357.698 45.0816 359.84 45.4712C361.943 45.8534 370.351 50.9655 374.293 53.4738C375.925 53.7127 380.193 54.4294 384.207 55.3849C389.223 56.5793 391.492 57.5348 392.09 58.4904C392.687 59.4459 392.926 61.1181 392.926 62.9097C392.926 64.7013 392.329 66.8513 391.492 67.3291C390.824 67.7113 388.944 68.2448 388.267 68.1651L374.054 69.1207H339.177L325.711 68.9948C325.674 68.9948 325.637 68.9949 325.599 68.995C324.556 68.9973 323.44 68.9998 322.694 67.2096C322.097 65.7763 322.097 62.7903 322.097 60.8792C322.097 58.9681 322.561 54.9071 323.411 53.9516C323.732 53.5902 324.178 53.076 324.695 52.4797C326.35 50.5708 328.734 47.8203 330.099 46.5462ZM352.555 54.9064L351.241 46.5455L351.467 46.5454C354.341 46.5448 358.696 46.5439 360.557 47.3816C363.065 48.5103 369.913 52.8362 372.621 54.9065L352.555 54.9064ZM337.027 47.1426L348.494 46.5455L349.091 54.9064H334.638C334.599 54.4684 334.543 52.5414 334.638 51.2036C334.734 49.8659 335.952 47.6203 337.027 47.1426ZM333.608 48.3342C333.088 49.1673 332.451 50.1871 332.249 51.2036C332.114 51.886 331.931 54.1897 331.891 54.9064H328.905C328.547 54.9064 328.188 54.6675 328.188 54.1897C328.188 53.712 328.468 51.9385 328.666 51.4425C329.144 50.2481 329.861 49.2926 330.936 48.2176L334.041 47.6204C333.919 47.8367 333.769 48.0765 333.608 48.3342Z" fill="#FFC652"/>
<path d="M325.442 52.9961C324.965 52.805 324.457 52.8504 324.298 52.93C324.059 53.2087 323.632 53.5818 323.249 54.1551C322.867 54.7284 322.44 56.9317 322.32 57.8872C323.515 57.9668 324.726 58.3578 325.681 57.6412C325.951 57.4385 326.159 56.9377 326.159 55.6238C326.159 54.31 326.04 53.235 325.442 52.9961Z" fill="#282828"/>
<g opacity="0.8">
<path d="M352.555 54.9059L351.241 46.545C354.107 46.545 358.646 46.5211 360.557 47.3811C363.065 48.5098 369.913 52.8357 372.621 54.906L352.555 54.9059Z" fill="white"/>
<path d="M337.027 47.1421L348.494 46.545L349.091 54.9059H334.638C334.599 54.468 334.543 52.5409 334.638 51.2031C334.734 49.8654 335.952 47.6198 337.027 47.1421Z" fill="white"/>
<path d="M332.249 51.2031C332.513 49.8722 333.524 48.5356 334.041 47.6199L330.936 48.2171C329.861 49.2921 329.144 50.2476 328.666 51.442C328.468 51.938 328.188 53.7115 328.188 54.1893C328.188 54.667 328.547 54.9059 328.905 54.9059H331.891C331.931 54.1893 332.114 51.8855 332.249 51.2031Z" fill="white"/>
</g>
<circle cx="332.243" cy="68.4786" r="4.9786" fill="#282828"/>
<circle cx="332.281" cy="68.5165" r="1.91107" fill="white"/>
<path fill-rule="evenodd" clip-rule="evenodd" d="M337.883 64.2382C338.995 65.8539 339.451 67.7961 339.534 69.0978L338.819 69.1432C338.742 67.9366 338.314 66.1284 337.293 64.6446C336.282 63.1767 334.696 62.0282 332.255 62.0734C329.812 62.1186 328.302 63.3039 327.392 64.7459C326.471 66.2059 326.169 67.9303 326.188 68.9883L325.472 69.0011C325.451 67.8296 325.778 65.962 326.786 64.3635C327.806 62.7469 329.525 61.4072 332.242 61.3569C334.962 61.3065 336.76 62.6066 337.883 64.2382Z" fill="white"/>
<path d="M88.7016 71.4496C88.6767 69.8235 89.6988 69.5066 90.0673 69.57L90.2086 73.2818C89.823 73.2609 88.7266 73.0756 88.7016 71.4496Z" fill="#282828"/>
<path fill-rule="evenodd" clip-rule="evenodd" d="M67.2744 53.0684H81.3784C81.7708 53.0684 85.4802 57.358 86.7952 59.5098C88.4389 62.1995 89.9332 65.7111 89.9332 66.4956C89.9332 66.6881 89.9647 67.3705 90.0083 68.3168C90.1426 71.2287 90.3921 76.6392 90.1947 77.9644C89.9332 79.7202 89.4476 80.0938 88.8125 80.0938H81.162H67.3693H65.8408V56.9864V54.6789C65.8408 53.8196 66.4174 53.0684 67.2744 53.0684ZM72.9346 54.9794H80.3997C80.6533 54.9794 80.8954 55.0821 81.068 55.268C82.1945 56.4812 84.1956 58.7975 84.9535 60.2842C85.5839 61.5207 86.1927 63.5324 86.5737 64.976C86.7256 65.5514 86.2862 66.1036 85.691 66.1036H83.5185C83.1824 66.1036 82.8727 65.9217 82.7092 65.6281L81.685 63.7899C81.5269 63.506 81.2316 63.3258 80.9068 63.3149L72.9034 63.0458C72.4042 63.0291 72.0081 62.6195 72.0081 62.1199V55.9058C72.0081 55.3941 72.4229 54.9794 72.9346 54.9794Z" fill="#45C4D7"/>
<path d="M12.0283 49.8053C12.0283 47.7587 13.6874 46.0996 15.734 46.0996H59.8799C61.9265 46.0996 63.5855 47.7587 63.5855 49.8053V77.2874H15.734C13.6874 77.2874 12.0283 75.6284 12.0283 73.5818V49.8053Z" fill="#45C4D7"/>
<path opacity="0.8" d="M80.4003 54.9795H72.9352C72.4236 54.9795 72.0088 55.3943 72.0088 55.9059V62.1201C72.0088 62.6196 72.4048 63.0292 72.9041 63.046L80.9075 63.315C81.2322 63.3259 81.5275 63.5062 81.6857 63.79L82.7098 65.6282C82.8734 65.9218 83.1831 66.1038 83.5191 66.1038H85.6917C86.2869 66.1038 86.7263 65.5516 86.5744 64.9761C86.1933 63.5325 85.5846 61.5209 84.9542 60.2843C84.1962 58.7976 82.1952 56.4814 81.0687 55.2681C80.8961 55.0822 80.654 54.9795 80.4003 54.9795Z" fill="white"/>
<path d="M26.5723 77.2871L63.6818 77.2871V80.0934L29.3785 80.0934C27.8287 80.0934 26.5723 78.837 26.5723 77.2871Z" fill="#282828"/>
<circle cx="21.5427" cy="80.6785" r="4.8269" fill="#282828"/>
<circle cx="21.5794" cy="80.7151" r="1.85283" fill="white"/>
<circle cx="74.3484" cy="79.9841" r="4.8269" fill="#282828"/>
<circle cx="74.3851" cy="80.0208" r="1.85283" fill="white"/>
<rect x="71.4004" y="64.9463" width="3.30398" height="1.15802" rx="0.57901" fill="#282828"/>
<path d="M80.876 78.3262H90.1396L89.9929 78.9374H81.0308L80.876 78.3262Z" fill="#282828"/>
<path d="M65.8418 78.3262H67.5828L67.4619 78.9374H65.8418V78.3262Z" fill="#282828"/>
<rect x="13.1279" y="74.5303" width="49.3581" height="0.694812" rx="0.347406" fill="#282828"/>
<path fill-rule="evenodd" clip-rule="evenodd" d="M79.5773 75.3245C80.831 76.7759 81.5099 78.6037 81.5099 80.0938H80.8151C80.8151 78.7904 80.2099 77.1198 79.0515 75.7787C77.9001 74.4458 76.2219 73.4601 74.0839 73.4743C71.9285 73.4885 70.3469 74.3476 69.2989 75.5885C68.2444 76.8372 67.7173 78.4891 67.7173 80.0938H67.0225C67.0225 78.346 67.5948 76.5294 68.768 75.1402C69.9478 73.7433 71.722 72.7951 74.0793 72.7795C76.4542 72.7637 78.3164 73.8648 79.5773 75.3245Z" fill="white"/>
<path fill-rule="evenodd" clip-rule="evenodd" d="M127.019 45.0996H170.295H171.87C172.458 45.0996 177.437 51.6819 179.853 54.973C182.059 55.5683 186.806 57.0738 188.151 58.3342C189.831 59.9098 188.781 68.3127 188.466 69.258C188.277 69.8233 187.608 69.8369 186.887 69.8517C186.643 69.8566 186.394 69.8617 186.155 69.8882L173.971 70.4134H141.409H128.28H125.759C125.024 70.4134 124.709 69.9933 124.394 68.2077C124.078 66.422 124.078 60.8551 124.394 56.0234C124.709 51.1917 126.389 45.0996 127.019 45.0996ZM165.883 46.8853C167.423 46.8152 171.282 46.7172 171.87 46.8853C172.458 47.0533 175.826 52.2772 177.437 54.8681H165.883V46.8853Z" fill="#FF7F52"/>
<path d="M185.971 68.3555H188.662L188.552 68.9098H186.102L185.971 68.3555Z" fill="#282828"/>
<circle cx="134.671" cy="69.093" r="4.37817" fill="#282828"/>
<circle cx="134.704" cy="69.1259" r="1.68059" fill="white"/>
<circle cx="180.045" cy="68.8821" r="4.37817" fill="#282828"/>
<circle cx="180.078" cy="68.915" r="1.68059" fill="white"/>
<path d="M141.15 68.5234H174.131L174.012 69.1537H141.305L141.15 68.5234Z" fill="#282828"/>
<path d="M123.028 61.6956C123.028 60.6872 123.729 60.3651 124.079 60.3301V63.061C123.729 63.026 123.028 62.7039 123.028 61.6956Z" fill="#282828" stroke="#282828"/>
<path d="M186.996 59.4895C187.521 58.8593 188.256 59.1744 188.676 59.2795C188.851 59.6296 188.991 60.4349 188.991 60.9601C188.991 61.5903 189.096 62.4306 189.096 62.8507C188.501 62.8507 187.206 62.9557 186.891 62.5356C186.398 61.8796 186.653 59.9009 186.996 59.4895Z" fill="#282828"/>
<rect x="165.883" y="60.0146" width="2.3108" height="1.05037" rx="0.525183" fill="#282828"/>
<path d="M124.442 68.5234H128.464L128.341 69.0778H124.546L124.442 68.5234Z" fill="#282828"/>
<path opacity="0.8" d="M171.87 46.8858C171.282 46.7177 167.423 46.8157 165.883 46.8858V54.8686H177.437C175.826 52.2777 172.458 47.0538 171.87 46.8858Z" fill="white"/>
<path fill-rule="evenodd" clip-rule="evenodd" d="M185.035 65.4185C186.083 66.9283 186.526 68.745 186.47 69.9042L185.84 69.8737C185.889 68.8622 185.492 67.1812 184.517 65.7779C183.553 64.3881 182.044 63.2972 179.864 63.3765C177.687 63.4557 176.259 64.6691 175.384 66.1473C174.502 67.6383 174.203 69.3697 174.285 70.3888L173.657 70.4395C173.564 69.2879 173.895 67.427 174.842 65.8264C175.796 64.2131 177.397 62.8356 179.841 62.7467C182.283 62.6579 183.978 63.8953 185.035 65.4185Z" fill="white"/>
<path fill-rule="evenodd" clip-rule="evenodd" d="M129.407 65.7001C130.523 64.0666 132.311 62.7008 134.799 62.7452C137.28 62.7895 139.062 64.1689 140.19 65.7869C141.31 67.3925 141.837 69.2297 141.742 70.3871H141.096C141.176 69.4087 140.73 67.6631 139.673 66.1473C138.625 64.6441 137.012 63.415 134.787 63.3753C132.57 63.3357 130.961 64.5433 129.927 66.0556C128.884 67.5819 128.484 69.3776 128.612 70.3858H127.982C127.83 69.1882 128.3 67.3196 129.407 65.7001Z" fill="white"/>
<path fill-rule="evenodd" clip-rule="evenodd" d="M268.141 67.7148C265.496 64.5097 257.916 58.0996 248.758 58.0996C239.601 58.0996 228.612 62.9835 216.25 72.7513V80.2297H220.523H235.175H266.615H281.725H287.677C287.829 79.5175 288.043 77.6352 287.677 75.8037C287.311 73.9722 286.609 72.5986 286.303 72.1408C285.337 71.1233 282.213 68.9052 277.451 68.1726C272.689 67.44 269.261 67.5621 268.141 67.7148ZM245.095 60.0838V67.7149H227.849C229.426 66.5448 233.466 63.8383 237.006 62.3731C240.547 60.908 243.874 60.2364 245.095 60.0838ZM247.69 60.0838V67.7149H264.783C264.5 67.4519 264.17 67.1203 263.797 66.7467C262.295 65.2411 260.112 63.0523 257.61 61.9153C254.253 60.389 250.03 60.0838 247.69 60.0838Z" fill="#667AFA"/>
<path d="M284.013 73.9718C284.013 72.7508 285.489 72.293 286.303 72.293C286.506 72.5473 287.005 73.3308 287.371 74.4297C287.737 75.5285 287.829 76.719 287.829 77.3295C286.659 76.7699 284.013 76.1173 284.013 73.9718Z" fill="#282828"/>
<path d="M215.028 75.1928C215.028 74.216 215.842 74.0736 216.249 74.1244V76.4137C215.842 76.4137 215.028 76.1696 215.028 75.1928Z" fill="#282828"/>
<circle cx="227.562" cy="80.2784" r="4.8214" fill="#282828"/>
<circle cx="227.599" cy="80.3156" r="1.85072" fill="white"/>
<circle cx="274.292" cy="80.2784" r="4.8214" fill="#282828"/>
<circle cx="274.329" cy="80.3156" r="1.85072" fill="white"/>
<rect x="247.995" y="70.0039" width="4.2734" height="0.610486" rx="0.305243" fill="#282828"/>
<path d="M234.674 78.5508H267.1L266.89 79.1613H234.901L234.674 78.5508Z" fill="#282828"/>
<path d="M281.26 78.8564H287.852L287.799 79.4669H281.494L281.26 78.8564Z" fill="#282828"/>
<path d="M216.249 78.5508H220.876L220.701 79.1613H216.249V78.5508Z" fill="#282828"/>
<g opacity="0.8">
<path d="M247.689 67.7151V60.084C250.03 60.084 254.252 60.3892 257.61 61.9154C260.732 63.3347 263.359 66.3923 264.783 67.7151H247.689Z" fill="white"/>
<path d="M245.095 67.7151V60.084C243.874 60.2366 240.547 60.9081 237.006 62.3733C233.465 63.8385 229.426 66.545 227.849 67.7151H245.095Z" fill="white"/>
</g>
<path fill-rule="evenodd" clip-rule="evenodd" d="M268.936 75.9609C267.798 77.4032 267.147 79.0114 266.926 80.1639H266.273C266.511 78.9254 267.171 77.0775 268.391 75.531C269.617 73.9769 271.426 72.709 273.94 72.709C276.451 72.709 278.334 73.9739 279.653 75.5208C280.968 77.0626 281.763 78.9617 282.079 80.1987H281.385C281.09 79.0447 280.359 77.4181 279.125 75.9711C277.895 74.5292 276.191 73.403 273.94 73.403C271.692 73.403 270.068 74.5261 268.936 75.9609Z" fill="white"/>
<path fill-rule="evenodd" clip-rule="evenodd" d="M222.461 76.2454C221.421 77.5821 220.987 79.1312 220.89 80.1979H220.178C220.284 79.0262 220.776 77.2805 221.913 75.8191C223.061 74.3443 224.862 73.167 227.544 73.167C230.223 73.167 232.12 74.3415 233.392 75.8046C234.655 77.258 235.304 78.997 235.516 80.1673H234.771C234.576 79.0991 234.037 77.6045 232.868 76.2599C231.708 74.9249 229.993 73.861 227.544 73.861C225.097 73.861 223.49 74.9221 222.461 76.2454Z" fill="white"/>
<g opacity="0.8">
<ellipse cx="207.161" cy="116.762" rx="18.6817" ry="18.6629" fill="#AAB6FF"/>
<ellipse cx="225.843" cy="134.679" rx="15.6926" ry="15.6768" fill="#AAB6FF"/>
<ellipse cx="190.721" cy="138.411" rx="15.6926" ry="15.6768" fill="#AAB6FF"/>
<ellipse cx="209.403" cy="136.918" rx="15.6926" ry="15.6768" fill="#AAB6FF"/>
<path d="M206.189 147.42L204.688 179.714H212.565L209.9 147.42L214.44 140.244L208.626 144.878L206.189 135.011V144.878L199.25 141.141L206.189 147.42Z" fill="#AAB6FF"/>
<path fill-rule="evenodd" clip-rule="evenodd" d="M206.192 134.807C206.394 134.789 206.579 134.92 206.628 135.116L208.93 144.318L213.969 140.03C214.118 139.903 214.336 139.899 214.49 140.021C214.643 140.142 214.69 140.355 214.6 140.53L210.745 148.029V150.595C210.745 150.822 210.561 151.006 210.335 151.006C210.108 151.006 209.924 150.822 209.924 150.595V147.93C209.924 147.864 209.94 147.8 209.969 147.742L212.922 141.998L208.959 145.371C208.851 145.463 208.703 145.493 208.567 145.449C208.432 145.406 208.329 145.296 208.294 145.158L206.474 137.884L206.023 145.084C206.014 145.229 205.929 145.358 205.8 145.424C205.671 145.49 205.516 145.483 205.394 145.405L199.236 141.509C199.044 141.388 198.987 141.134 199.109 140.943C199.23 140.752 199.484 140.695 199.675 140.816L205.247 144.341L205.82 135.19C205.832 134.988 205.99 134.826 206.192 134.807Z" fill="white" fill-opacity="0.3"/>
</g>
<g opacity="0.8">
<ellipse cx="-3.15701" cy="138.679" rx="15.6926" ry="15.6768" fill="#AAB6FF"/>
</g>
<g opacity="0.8">
<ellipse cx="338.161" cy="120.762" rx="18.6817" ry="18.6629" fill="#AAB6FF"/>
<ellipse cx="356.843" cy="138.679" rx="15.6926" ry="15.6768" fill="#AAB6FF"/>
<ellipse cx="321.721" cy="142.411" rx="15.6926" ry="15.6768" fill="#AAB6FF"/>
<ellipse cx="340.403" cy="140.918" rx="15.6926" ry="15.6768" fill="#AAB6FF"/>
<path d="M337.189 151.42L335.688 183.714H343.565L340.9 151.42L345.44 144.244L339.626 148.878L337.189 139.011V148.878L330.25 145.141L337.189 151.42Z" fill="#AAB6FF"/>
<path fill-rule="evenodd" clip-rule="evenodd" d="M337.192 138.807C337.394 138.789 337.579 138.92 337.628 139.116L339.93 148.318L344.969 144.03C345.118 143.903 345.336 143.899 345.49 144.021C345.643 144.142 345.69 144.355 345.6 144.53L341.745 152.029V154.595C341.745 154.822 341.561 155.006 341.335 155.006C341.108 155.006 340.924 154.822 340.924 154.595V151.93C340.924 151.864 340.94 151.8 340.969 151.742L343.922 145.998L339.959 149.371C339.851 149.463 339.703 149.493 339.567 149.449C339.432 149.406 339.329 149.296 339.294 149.158L337.474 141.884L337.023 149.084C337.014 149.229 336.929 149.358 336.8 149.424C336.671 149.49 336.516 149.483 336.394 149.405L330.236 145.509C330.044 145.388 329.987 145.134 330.109 144.943C330.23 144.752 330.484 144.695 330.675 144.816L336.247 148.341L336.82 139.19C336.832 138.988 336.99 138.826 337.192 138.807Z" fill="white" fill-opacity="0.3"/>
</g>
<g opacity="0.8">
<ellipse cx="85.1612" cy="118.762" rx="18.6817" ry="18.6629" fill="#AAB6FF"/>
<ellipse cx="103.843" cy="136.679" rx="15.6926" ry="15.6768" fill="#AAB6FF"/>
<ellipse cx="68.7209" cy="140.411" rx="15.6926" ry="15.6768" fill="#AAB6FF"/>
<ellipse cx="87.4026" cy="138.918" rx="15.6926" ry="15.6768" fill="#AAB6FF"/>
<path d="M84.1886 149.42L82.6883 181.714H90.5645L87.8998 149.42L92.4398 142.244L86.6264 146.878L84.1886 137.011V146.878L77.25 143.141L84.1886 149.42Z" fill="#AAB6FF"/>
<path fill-rule="evenodd" clip-rule="evenodd" d="M84.1919 136.807C84.3935 136.789 84.5785 136.92 84.6276 137.116L86.9303 146.318L91.9686 142.03C92.1178 141.903 92.336 141.899 92.4897 142.021C92.6433 142.142 92.6895 142.355 92.6 142.53L88.7452 150.029V152.595C88.7452 152.822 88.5614 153.006 88.3347 153.006C88.108 153.006 87.9242 152.822 87.9242 152.595V149.93C87.9242 149.864 87.9397 149.8 87.9695 149.742L90.9222 143.998L86.9588 147.371C86.8506 147.463 86.7026 147.493 86.5673 147.449C86.432 147.406 86.3287 147.296 86.2943 147.158L84.4738 139.884L84.0233 147.084C84.0142 147.229 83.9294 147.358 83.8002 147.424C83.6709 147.49 83.5165 147.483 83.3939 147.405L77.2359 143.509C77.0443 143.388 76.9874 143.134 77.1087 142.943C77.23 142.752 77.4836 142.695 77.6752 142.816L83.2471 146.341L83.8196 137.19C83.8322 136.988 83.9903 136.826 84.1919 136.807Z" fill="white" fill-opacity="0.3"/>
</g>
<rect x="0.0283203" y="169.1" width="342" height="31" fill="#AAB6FF"/>
<path fill-rule="evenodd" clip-rule="evenodd" d="M43.1413 167.715C40.4959 164.51 32.9157 158.1 23.7584 158.1C14.6011 158.1 3.61234 162.983 -8.75 172.751V180.23H-4.4766H10.1751H41.6151H56.7246H62.6769C62.8295 179.517 63.0432 177.635 62.6769 175.804C62.3106 173.972 61.6085 172.599 61.3033 172.141C60.3367 171.123 57.213 168.905 52.4512 168.173C47.6894 167.44 44.2605 167.562 43.1413 167.715ZM20.0953 160.084V167.715H2.84909C4.42618 166.545 8.46556 163.838 12.0064 162.373C15.5472 160.908 18.8743 160.236 20.0953 160.084ZM22.6899 160.084V167.715H39.7835C39.5003 167.452 39.1696 167.12 38.7969 166.747C37.2951 165.241 35.1118 163.052 32.6103 161.915C29.2526 160.389 25.0301 160.084 22.6899 160.084Z" fill="#257AF8"/>
<path d="M59.0132 173.972C59.0132 172.751 60.4886 172.293 61.3026 172.293C61.506 172.547 62.0045 173.331 62.3708 174.43C62.7371 175.529 62.8288 176.719 62.8288 177.329C61.6587 176.77 59.0132 176.117 59.0132 173.972Z" fill="#282828"/>
<path d="M-9.97168 175.193C-9.97168 174.216 -9.1577 174.074 -8.75071 174.124V176.414C-9.1577 176.414 -9.97168 176.17 -9.97168 175.193Z" fill="#282828"/>
<circle cx="2.56163" cy="180.278" r="4.8214" fill="#282828"/>
<circle cx="2.59877" cy="180.316" r="1.85072" fill="white"/>
<circle cx="49.2921" cy="180.278" r="4.8214" fill="#282828"/>
<circle cx="49.3292" cy="180.316" r="1.85072" fill="white"/>
<rect x="22.9951" y="170.004" width="4.2734" height="0.610486" rx="0.305243" fill="#282828"/>
<path d="M9.67383 178.551H42.1005L41.8902 179.161H9.90092L9.67383 178.551Z" fill="#282828"/>
<path d="M56.2598 178.856H62.8517L62.7989 179.467H56.4943L56.2598 178.856Z" fill="#282828"/>
<g opacity="0.8">
<path d="M22.6894 167.715V160.084C25.0296 160.084 29.2521 160.389 32.6098 161.915C35.7321 163.335 38.3586 166.392 39.783 167.715H22.6894Z" fill="white"/>
<path d="M20.0949 167.715V160.084C18.8739 160.237 15.5467 160.908 12.0059 162.373C8.4651 163.838 4.42572 166.545 2.84863 167.715H20.0949Z" fill="white"/>
</g>
<path fill-rule="evenodd" clip-rule="evenodd" d="M43.9356 175.961C42.7977 177.403 42.147 179.011 41.9263 180.164H41.2734C41.5106 178.925 42.1707 177.078 43.3908 175.531C44.6168 173.977 46.426 172.709 48.9401 172.709C51.4512 172.709 53.3335 173.974 54.6527 175.521C55.9675 177.063 56.7633 178.962 57.0791 180.199H56.3851C56.0905 179.045 55.3586 177.418 54.1246 175.971C52.895 174.529 51.1908 173.403 48.9401 173.403C46.6924 173.403 45.0676 174.526 43.9356 175.961Z" fill="white"/>
<path fill-rule="evenodd" clip-rule="evenodd" d="M-2.53925 176.245C-3.57945 177.582 -4.01275 179.131 -4.10972 180.198H-4.82227C-4.71574 179.026 -4.22416 177.28 -3.08697 175.819C-1.93928 174.344 -0.137733 173.167 2.54391 173.167C5.22299 173.167 7.12018 174.342 8.39177 175.805C9.65491 177.258 10.3036 178.997 10.5164 180.167H9.77069C9.57646 179.099 9.03657 177.605 7.86794 176.26C6.70775 174.925 4.9929 173.861 2.54391 173.861C0.0974665 173.861 -1.50953 174.922 -2.53925 176.245Z" fill="white"/>
<path fill-rule="evenodd" clip-rule="evenodd" d="M367.141 167.715C364.496 164.51 356.916 158.1 347.758 158.1C338.601 158.1 327.612 162.983 315.25 172.751V180.23H319.523H334.175H365.615H380.725H386.677C386.829 179.517 387.043 177.635 386.677 175.804C386.311 173.972 385.609 172.599 385.303 172.141C384.337 171.123 381.213 168.905 376.451 168.173C371.689 167.44 368.261 167.562 367.141 167.715ZM344.095 160.084V167.715H326.849C328.426 166.545 332.466 163.838 336.006 162.373C339.547 160.908 342.874 160.236 344.095 160.084ZM346.69 160.084V167.715H363.783C363.5 167.452 363.17 167.12 362.797 166.747C361.295 165.241 359.112 163.052 356.61 161.915C353.253 160.389 349.03 160.084 346.69 160.084Z" fill="#C8D0FF"/>
<path d="M383.013 173.972C383.013 172.751 384.489 172.293 385.303 172.293C385.506 172.547 386.005 173.331 386.371 174.43C386.737 175.529 386.829 176.719 386.829 177.329C385.659 176.77 383.013 176.117 383.013 173.972Z" fill="#282828"/>
<path d="M314.028 175.193C314.028 174.216 314.842 174.074 315.249 174.124V176.414C314.842 176.414 314.028 176.17 314.028 175.193Z" fill="#282828"/>
<circle cx="326.562" cy="180.278" r="4.8214" fill="#282828"/>
<circle cx="326.599" cy="180.316" r="1.85072" fill="white"/>
<path d="M333.674 178.551H366.1L365.89 179.161H333.901L333.674 178.551Z" fill="#282828"/>
<path d="M315.249 178.551H319.876L319.701 179.161H315.249V178.551Z" fill="#282828"/>
<g opacity="0.8">
<path d="M346.689 167.715V160.084C349.03 160.084 353.252 160.389 356.61 161.915C359.732 163.335 362.359 166.392 363.783 167.715H346.689Z" fill="white"/>
<path d="M344.095 167.715V160.084C342.874 160.237 339.547 160.908 336.006 162.373C332.465 163.838 328.426 166.545 326.849 167.715H344.095Z" fill="white"/>
</g>
<path fill-rule="evenodd" clip-rule="evenodd" d="M321.461 176.245C320.421 177.582 319.987 179.131 319.89 180.198H319.178C319.284 179.026 319.776 177.28 320.913 175.819C322.061 174.344 323.862 173.167 326.544 173.167C329.223 173.167 331.12 174.342 332.392 175.805C333.655 177.258 334.304 178.997 334.516 180.167H333.771C333.576 179.099 333.037 177.605 331.868 176.26C330.708 174.925 328.993 173.861 326.544 173.861C324.097 173.861 322.49 174.922 321.461 176.245Z" fill="white"/>
<path fill-rule="evenodd" clip-rule="evenodd" d="M91.0195 157.1H134.295H135.87C136.458 157.1 141.437 163.682 143.853 166.973C146.059 167.568 150.806 169.074 152.151 170.334C153.831 171.91 152.781 180.313 152.466 181.258C152.277 181.823 151.608 181.837 150.887 181.852C150.643 181.857 150.394 181.862 150.155 181.888L137.971 182.413H105.409H92.2799H89.759C89.0238 182.413 88.7087 181.993 88.3936 180.208C88.0784 178.422 88.0784 172.855 88.3936 168.023C88.7087 163.192 90.3893 157.1 91.0195 157.1ZM129.882 158.885C131.423 158.815 135.281 158.717 135.87 158.885C136.458 159.053 139.826 164.277 141.436 166.868H129.882V158.885Z" fill="#667AFA"/>
<path d="M149.971 180.355H152.662L152.552 180.91H150.102L149.971 180.355Z" fill="#282828"/>
<circle cx="98.6711" cy="181.092" r="4.37817" fill="#282828"/>
<circle cx="98.704" cy="181.126" r="1.68059" fill="white"/>
<circle cx="144.045" cy="180.882" r="4.37817" fill="#282828"/>
<circle cx="144.078" cy="180.916" r="1.68059" fill="white"/>
<path d="M105.15 180.522H138.131L138.012 181.153H105.305L105.15 180.522Z" fill="#282828"/>
<path d="M87.0283 173.696C87.0283 172.687 87.7286 172.365 88.0787 172.33V175.061C87.7286 175.026 87.0283 174.704 87.0283 173.696Z" fill="#282828" stroke="#282828"/>
<path d="M150.996 171.49C151.521 170.859 152.256 171.174 152.676 171.279C152.851 171.63 152.991 172.435 152.991 172.96C152.991 173.59 153.096 174.431 153.096 174.851C152.501 174.851 151.206 174.956 150.891 174.536C150.398 173.88 150.653 171.901 150.996 171.49Z" fill="#282828"/>
<rect x="129.883" y="172.015" width="2.3108" height="1.05037" rx="0.525183" fill="#282828"/>
<path d="M88.4424 180.522H92.4641L92.341 181.077H88.5462L88.4424 180.522Z" fill="#282828"/>
<path opacity="0.8" d="M135.87 158.885C135.282 158.717 131.423 158.815 129.883 158.885V166.868H141.437C139.826 164.277 136.458 159.053 135.87 158.885Z" fill="white"/>
<path fill-rule="evenodd" clip-rule="evenodd" d="M149.035 177.418C150.083 178.927 150.526 180.744 150.47 181.903L149.84 181.873C149.889 180.861 149.492 179.18 148.517 177.777C147.553 176.387 146.044 175.296 143.864 175.376C141.687 175.455 140.259 176.668 139.384 178.146C138.502 179.637 138.203 181.369 138.285 182.388L137.657 182.439C137.564 181.287 137.895 179.426 138.842 177.825C139.796 176.212 141.397 174.835 143.841 174.746C146.283 174.657 147.978 175.894 149.035 177.418Z" fill="white"/>
<path fill-rule="evenodd" clip-rule="evenodd" d="M93.4069 177.7C94.5232 176.067 96.3106 174.701 98.7985 174.745C101.28 174.79 103.062 176.169 104.19 177.787C105.31 179.393 105.837 181.23 105.742 182.387H105.096C105.176 181.409 104.73 179.663 103.673 178.147C102.625 176.644 101.012 175.415 98.7873 175.375C96.5695 175.336 94.9608 176.543 93.9273 178.056C92.8843 179.582 92.4842 181.378 92.6122 182.386H91.9819C91.8299 181.188 92.3002 179.32 93.4069 177.7Z" fill="white"/>
<path fill-rule="evenodd" clip-rule="evenodd" d="M248.202 158.546C252.462 158.068 262.201 157.113 267.074 157.113C268.198 157.113 269.188 157.109 270.072 157.105C273.975 157.089 275.8 157.082 277.943 157.471C280.045 157.853 288.454 162.966 292.395 165.474C294.028 165.713 298.296 166.429 302.309 167.385C307.326 168.579 309.595 169.535 310.192 170.49C310.789 171.446 311.028 173.118 311.028 174.91C311.028 176.701 310.431 178.851 309.595 179.329C308.926 179.711 307.047 180.245 306.37 180.165L292.157 181.121H257.28L243.814 180.995C243.777 180.995 243.739 180.995 243.702 180.995C242.658 180.997 241.543 181 240.797 179.21C240.199 177.776 240.199 174.79 240.199 172.879C240.199 170.968 240.664 166.907 241.513 165.952C241.835 165.59 242.28 165.076 242.797 164.48C244.452 162.571 246.837 159.82 248.202 158.546ZM270.657 166.907L269.343 158.546L269.569 158.546C272.443 158.545 276.798 158.544 278.659 159.382C281.168 160.511 288.016 164.836 290.723 166.907L270.657 166.907ZM255.129 159.143L266.596 158.546L267.193 166.907H252.741C252.701 166.469 252.645 164.542 252.741 163.204C252.836 161.866 254.054 159.621 255.129 159.143ZM251.71 160.334C251.19 161.168 250.553 162.187 250.352 163.204C250.216 163.886 250.033 166.19 249.993 166.907H247.007C246.649 166.907 246.291 166.668 246.291 166.19C246.291 165.712 246.57 163.939 246.768 163.443C247.246 162.248 247.963 161.293 249.038 160.218L252.143 159.621C252.021 159.837 251.871 160.077 251.71 160.334Z" fill="#27A6B9"/>
<path fill-rule="evenodd" clip-rule="evenodd" d="M304.898 175.498C306.191 176.995 306.878 178.622 306.878 180.159H306.162C306.162 178.815 305.55 177.35 304.355 175.967C303.168 174.592 301.437 173.575 299.232 173.59C297.008 173.605 295.377 174.491 294.296 175.771C293.209 177.058 292.665 179.459 292.665 181.115H291.948C291.948 179.312 292.539 176.741 293.749 175.308C294.965 173.867 296.796 172.889 299.227 172.873C301.676 172.857 303.597 173.993 304.898 175.498Z" fill="white"/>
<rect x="272.329" y="169.654" width="3.34437" height="0.477767" rx="0.238883" fill="#282828"/>
<path d="M308.161 172.52C308.032 171.357 309.692 170.924 310.528 171.203C310.614 171.417 310.772 171.955 310.855 172.503C310.941 173.074 310.991 173.554 310.991 173.777C310.115 174.056 308.353 174.24 308.161 172.52Z" fill="#282828"/>
<path d="M243.545 164.996C243.067 164.805 242.56 164.85 242.4 164.93C242.162 165.209 241.734 165.582 241.352 166.155C240.97 166.728 240.542 168.932 240.423 169.887C241.617 169.967 242.828 170.358 243.784 169.641C244.054 169.438 244.262 168.938 244.262 167.624C244.262 166.31 244.142 165.235 243.545 164.996Z" fill="#282828"/>
<g opacity="0.8">
<path d="M270.657 166.907L269.343 158.546C272.21 158.546 276.749 158.522 278.66 159.382C281.168 160.511 288.016 164.837 290.723 166.907L270.657 166.907Z" fill="white"/>
<path d="M255.13 159.143L266.596 158.546L267.193 166.907H252.741C252.701 166.469 252.645 164.542 252.741 163.204C252.836 161.866 254.055 159.621 255.13 159.143Z" fill="white"/>
<path d="M250.352 163.204C250.616 161.873 251.626 160.537 252.144 159.621L249.038 160.218C247.963 161.293 247.247 162.249 246.769 163.443C246.57 163.939 246.291 165.712 246.291 166.19C246.291 166.668 246.649 166.907 247.008 166.907H249.994C250.034 166.19 250.217 163.886 250.352 163.204Z" fill="white"/>
</g>
<circle cx="299.316" cy="180.24" r="4.9786" fill="#282828"/>
<circle cx="299.354" cy="180.278" r="1.91107" fill="white"/>
<circle cx="250.346" cy="180.479" r="4.9786" fill="#282828"/>
<circle cx="250.384" cy="180.517" r="1.91107" fill="white"/>
<path fill-rule="evenodd" clip-rule="evenodd" d="M255.985 176.238C257.098 177.854 257.554 179.796 257.636 181.098L256.921 181.143C256.845 179.937 256.417 178.128 255.395 176.645C254.384 175.177 252.798 174.028 250.358 174.073C247.915 174.119 246.405 175.304 245.495 176.746C244.574 178.206 244.272 179.93 244.291 180.988L243.574 181.001C243.553 179.83 243.881 177.962 244.889 176.363C245.909 174.747 247.628 173.407 250.345 173.357C253.064 173.307 254.862 174.607 255.985 176.238Z" fill="white"/>
<path d="M226.602 172.181C226.579 170.701 227.51 170.412 227.846 170.47L227.974 173.849C227.623 173.83 226.625 173.662 226.602 172.181Z" fill="#282828"/>
<path fill-rule="evenodd" clip-rule="evenodd" d="M207.091 155.445H219.934C220.291 155.445 223.669 159.351 224.866 161.31C226.363 163.76 227.723 166.957 227.723 167.671C227.723 167.847 227.752 168.468 227.792 169.33C227.914 171.981 228.141 176.907 227.961 178.114C227.723 179.713 227.281 180.053 226.703 180.053H219.737H207.178H205.786V159.013V156.912C205.786 156.129 206.311 155.445 207.091 155.445ZM212.245 157.186H219.042C219.273 157.186 219.494 157.279 219.651 157.448C220.677 158.553 222.499 160.662 223.189 162.016C223.763 163.142 224.317 164.973 224.664 166.288C224.802 166.812 224.402 167.315 223.86 167.315H221.882C221.576 167.315 221.294 167.149 221.145 166.882L220.213 165.208C220.069 164.949 219.8 164.785 219.504 164.775L212.217 164.53C211.762 164.515 211.402 164.142 211.402 163.687V158.029C211.402 157.563 211.779 157.186 212.245 157.186Z" fill="#257AF8"/>
<path d="M156.788 152.474C156.788 150.61 158.299 149.1 160.162 149.1H200.359C202.222 149.1 203.733 150.61 203.733 152.474V177.497H160.162C158.299 177.497 156.788 175.987 156.788 174.123V152.474Z" fill="#257AF8"/>
<path opacity="0.8" d="M219.043 157.186H212.246C211.78 157.186 211.402 157.563 211.402 158.029V163.687C211.402 164.142 211.763 164.515 212.218 164.53L219.505 164.775C219.801 164.785 220.069 164.949 220.213 165.208L221.146 166.882C221.295 167.149 221.577 167.315 221.883 167.315H223.861C224.403 167.315 224.803 166.812 224.665 166.288C224.318 164.973 223.764 163.142 223.19 162.016C222.499 160.662 220.677 158.553 219.652 157.448C219.495 157.279 219.274 157.186 219.043 157.186Z" fill="white"/>
<path d="M170.031 177.497L203.821 177.497V180.052L172.586 180.052C171.175 180.052 170.031 178.908 170.031 177.497Z" fill="#282828"/>
<circle cx="165.451" cy="180.585" r="4.39506" fill="#282828"/>
<circle cx="165.484" cy="180.618" r="1.68707" fill="white"/>
<circle cx="213.533" cy="179.953" r="4.39506" fill="#282828"/>
<circle cx="213.566" cy="179.986" r="1.68707" fill="white"/>
<rect x="210.849" y="166.26" width="3.00839" height="1.05442" rx="0.527209" fill="#282828"/>
<path d="M219.477 178.443H227.911L227.778 179H219.618L219.477 178.443Z" fill="#282828"/>
<path d="M205.787 178.443H207.372L207.262 179H205.787V178.443Z" fill="#282828"/>
<rect x="157.789" y="174.987" width="44.9423" height="0.632651" rx="0.316326" fill="#282828"/>
<path fill-rule="evenodd" clip-rule="evenodd" d="M218.294 175.71C219.436 177.032 220.054 178.696 220.054 180.053H219.421C219.421 178.866 218.87 177.345 217.815 176.124C216.767 174.91 215.239 174.012 213.292 174.025C211.329 174.038 209.889 174.821 208.935 175.95C207.975 177.087 207.495 178.592 207.495 180.053H206.862C206.862 178.461 207.383 176.807 208.452 175.542C209.526 174.27 211.141 173.407 213.288 173.393C215.45 173.378 217.146 174.381 218.294 175.71Z" fill="white"/>
<path d="M178.702 177.45C178.677 175.823 179.699 175.507 180.067 175.57L180.209 179.282C179.823 179.261 178.727 179.076 178.702 177.45Z" fill="#282828"/>
<path fill-rule="evenodd" clip-rule="evenodd" d="M157.274 159.068H171.378C171.771 159.068 175.48 163.358 176.795 165.51C178.439 168.2 179.933 171.711 179.933 172.496C179.933 172.688 179.965 173.37 180.008 174.317C180.143 177.229 180.392 182.639 180.195 183.964C179.933 185.72 179.448 186.094 178.813 186.094H171.162H157.369H155.841V162.986V160.679C155.841 159.82 156.417 159.068 157.274 159.068ZM162.935 160.979H170.4C170.653 160.979 170.895 161.082 171.068 161.268C172.195 162.481 174.196 164.797 174.954 166.284C175.584 167.521 176.193 169.532 176.574 170.976C176.726 171.551 176.286 172.104 175.691 172.104H173.518C173.182 172.104 172.873 171.922 172.709 171.628L171.685 169.79C171.527 169.506 171.232 169.326 170.907 169.315L162.903 169.046C162.404 169.029 162.008 168.619 162.008 168.12V161.906C162.008 161.394 162.423 160.979 162.935 160.979Z" fill="#45C4D7"/>
<path d="M102.028 155.805C102.028 153.759 103.687 152.1 105.734 152.1H149.88C151.926 152.1 153.586 153.759 153.586 155.805V183.287H105.734C103.687 183.287 102.028 181.628 102.028 179.582V155.805Z" fill="#45C4D7"/>
<path opacity="0.8" d="M170.4 160.979H162.935C162.424 160.979 162.009 161.394 162.009 161.906V168.12C162.009 168.62 162.405 169.029 162.904 169.046L170.907 169.315C171.232 169.326 171.528 169.506 171.686 169.79L172.71 171.628C172.873 171.922 173.183 172.104 173.519 172.104H175.692C176.287 172.104 176.726 171.552 176.574 170.976C176.193 169.532 175.585 167.521 174.954 166.284C174.196 164.798 172.195 162.481 171.069 161.268C170.896 161.082 170.654 160.979 170.4 160.979Z" fill="white"/>
<path d="M116.572 183.287L153.682 183.287V186.093L119.379 186.093C117.829 186.093 116.572 184.837 116.572 183.287Z" fill="#282828"/>
<circle cx="111.543" cy="186.678" r="4.8269" fill="#282828"/>
<circle cx="111.579" cy="186.715" r="1.85283" fill="white"/>
<circle cx="164.348" cy="185.984" r="4.8269" fill="#282828"/>
<circle cx="164.385" cy="186.021" r="1.85283" fill="white"/>
<rect x="161.4" y="170.946" width="3.30398" height="1.15802" rx="0.57901" fill="#282828"/>
<path d="M170.876 184.326H180.14L179.993 184.937H171.031L170.876 184.326Z" fill="#282828"/>
<path d="M155.842 184.326H157.583L157.462 184.937H155.842V184.326Z" fill="#282828"/>
<rect x="103.128" y="180.53" width="49.3581" height="0.694812" rx="0.347406" fill="#282828"/>
<path fill-rule="evenodd" clip-rule="evenodd" d="M169.577 181.324C170.831 182.776 171.51 184.604 171.51 186.094H170.815C170.815 184.79 170.21 183.12 169.051 181.779C167.9 180.446 166.222 179.46 164.084 179.474C161.928 179.489 160.347 180.348 159.299 181.588C158.244 182.837 157.717 184.489 157.717 186.094H157.022C157.022 184.346 157.595 182.529 158.768 181.14C159.948 179.743 161.722 178.795 164.079 178.779C166.454 178.764 168.316 179.865 169.577 181.324Z" fill="white"/>
<path fill-rule="evenodd" clip-rule="evenodd" d="M283.031 164.546C287.291 164.068 297.03 163.113 301.903 163.113C303.027 163.113 304.018 163.109 304.901 163.105C308.804 163.089 310.629 163.082 312.772 163.471C314.874 163.853 323.283 168.966 327.225 171.474C328.857 171.713 333.125 172.429 337.138 173.385C342.155 174.579 344.424 175.535 345.021 176.49C345.619 177.446 345.857 179.118 345.857 180.91C345.857 182.701 345.26 184.851 344.424 185.329C343.755 185.711 341.876 186.245 341.199 186.165L326.986 187.121H292.109L278.643 186.995C278.606 186.995 278.568 186.995 278.531 186.995C277.487 186.997 276.372 187 275.626 185.21C275.028 183.776 275.028 180.79 275.028 178.879C275.028 176.968 275.493 172.907 276.342 171.952C276.664 171.59 277.11 171.076 277.627 170.48C279.281 168.571 281.666 165.82 283.031 164.546ZM305.486 172.907L304.172 164.546L304.398 164.546C307.272 164.545 311.627 164.544 313.488 165.382C315.997 166.511 322.845 170.836 325.552 172.907L305.486 172.907ZM289.958 165.143L301.425 164.546L302.022 172.907H287.57C287.53 172.469 287.474 170.542 287.57 169.204C287.665 167.866 288.883 165.621 289.958 165.143ZM286.539 166.334C286.019 167.168 285.382 168.187 285.181 169.204C285.045 169.886 284.862 172.19 284.822 172.907H281.836C281.478 172.907 281.12 172.668 281.12 172.19C281.12 171.712 281.399 169.939 281.597 169.443C282.075 168.248 282.792 167.293 283.867 166.218L286.972 165.621C286.85 165.837 286.7 166.077 286.539 166.334Z" fill="#FFC652"/>
<path fill-rule="evenodd" clip-rule="evenodd" d="M339.727 181.498C341.02 182.995 341.708 184.622 341.708 186.159H340.991C340.991 184.815 340.379 183.35 339.184 181.967C337.997 180.592 336.266 179.575 334.061 179.59C331.838 179.605 330.206 180.491 329.125 181.771C328.038 183.058 327.494 185.459 327.494 187.115H326.777C326.777 185.312 327.368 182.741 328.578 181.308C329.795 179.867 331.625 178.889 334.056 178.873C336.505 178.857 338.426 179.993 339.727 181.498Z" fill="white"/>
<rect x="307.158" y="175.654" width="3.34437" height="0.477767" rx="0.238883" fill="#282828"/>
<path d="M278.374 170.996C277.896 170.805 277.389 170.85 277.23 170.93C276.991 171.209 276.563 171.582 276.181 172.155C275.799 172.728 275.371 174.932 275.252 175.887C276.446 175.967 277.657 176.358 278.613 175.641C278.883 175.438 279.091 174.938 279.091 173.624C279.091 172.31 278.971 171.235 278.374 170.996Z" fill="#282828"/>
<g opacity="0.8">
<path d="M305.486 172.907L304.172 164.546C307.039 164.546 311.578 164.522 313.489 165.382C315.997 166.511 322.845 170.837 325.552 172.907L305.486 172.907Z" fill="white"/>
<path d="M289.959 165.143L301.425 164.546L302.022 172.907H287.57C287.53 172.469 287.474 170.542 287.57 169.204C287.666 167.866 288.884 165.621 289.959 165.143Z" fill="white"/>
<path d="M285.181 169.204C285.445 167.873 286.455 166.537 286.973 165.621L283.867 166.218C282.792 167.293 282.076 168.249 281.598 169.443C281.4 169.939 281.12 171.712 281.12 172.19C281.12 172.668 281.478 172.907 281.837 172.907H284.823C284.863 172.19 285.046 169.886 285.181 169.204Z" fill="white"/>
</g>
<circle cx="334.146" cy="186.24" r="4.9786" fill="#282828"/>
<circle cx="334.184" cy="186.278" r="1.91107" fill="white"/>
<circle cx="285.175" cy="186.479" r="4.9786" fill="#282828"/>
<circle cx="285.213" cy="186.517" r="1.91107" fill="white"/>
<path fill-rule="evenodd" clip-rule="evenodd" d="M290.814 182.238C291.927 183.854 292.383 185.796 292.466 187.098L291.75 187.143C291.674 185.937 291.246 184.128 290.224 182.645C289.214 181.177 287.627 180.028 285.187 180.073C282.744 180.119 281.234 181.304 280.324 182.746C279.403 184.206 279.101 185.93 279.12 186.988L278.403 187.001C278.382 185.83 278.71 183.962 279.718 182.363C280.738 180.747 282.457 179.407 285.174 179.357C287.893 179.307 289.691 180.607 290.814 182.238Z" fill="white"/>
<path fill-rule="evenodd" clip-rule="evenodd" d="M23.0195 163.1H66.2945H67.8701C68.4583 163.1 73.437 169.682 75.8529 172.973C78.0586 173.568 82.8063 175.074 84.1508 176.334C85.8313 177.91 84.781 186.313 84.4659 187.258C84.2775 187.823 83.6078 187.837 82.8869 187.852C82.6433 187.857 82.3938 187.862 82.1551 187.888L69.9708 188.413H37.4095H24.2799H21.759C21.0238 188.413 20.7087 187.993 20.3936 186.208C20.0784 184.422 20.0784 178.855 20.3936 174.023C20.7087 169.192 22.3893 163.1 23.0195 163.1ZM61.8825 164.885C63.423 164.815 67.2814 164.717 67.8696 164.885C68.4578 165.053 71.8259 170.277 73.4365 172.868H61.8825V164.885Z" fill="#FFC652"/>
<path d="M81.9707 186.355H84.6616L84.5519 186.91H82.102L81.9707 186.355Z" fill="#282828"/>
<circle cx="30.6711" cy="187.092" r="4.37817" fill="#282828"/>
<circle cx="30.704" cy="187.126" r="1.68059" fill="white"/>
<circle cx="76.0452" cy="186.882" r="4.37817" fill="#282828"/>
<circle cx="76.078" cy="186.916" r="1.68059" fill="white"/>
<path d="M37.1504 186.522H70.1315L70.0115 187.153H37.3046L37.1504 186.522Z" fill="#282828"/>
<path d="M19.0283 179.696C19.0283 178.687 19.7286 178.365 20.0787 178.33V181.061C19.7286 181.026 19.0283 180.704 19.0283 179.696Z" fill="#282828" stroke="#282828"/>
<path d="M82.9958 177.49C83.5212 176.859 84.2562 177.174 84.6763 177.279C84.8514 177.63 84.9914 178.435 84.9914 178.96C84.9914 179.59 85.0965 180.431 85.0965 180.851C84.5013 180.851 83.206 180.956 82.8907 180.536C82.3984 179.88 82.6528 177.901 82.9958 177.49Z" fill="#282828"/>
<rect x="61.8828" y="178.015" width="2.3108" height="1.05037" rx="0.525183" fill="#282828"/>
<path d="M20.4424 186.522H24.4641L24.341 187.077H20.5462L20.4424 186.522Z" fill="#282828"/>
<path opacity="0.8" d="M67.8699 164.885C67.2817 164.717 63.4233 164.815 61.8828 164.885V172.868H73.4368C71.8263 170.277 68.4581 165.053 67.8699 164.885Z" fill="white"/>
<path fill-rule="evenodd" clip-rule="evenodd" d="M81.0352 183.418C82.0831 184.927 82.5258 186.744 82.4697 187.903L81.8402 187.873C81.8892 186.861 81.4915 185.18 80.5175 183.777C79.5528 182.387 78.0441 181.296 75.8642 181.376C73.6866 181.455 72.2589 182.668 71.3842 184.146C70.5019 185.637 70.2026 187.369 70.2848 188.388L69.6566 188.439C69.5638 187.287 69.8947 185.426 70.8418 183.825C71.7964 182.212 73.3973 180.835 75.8413 180.746C78.2831 180.657 79.9779 181.894 81.0352 183.418Z" fill="white"/>
<path fill-rule="evenodd" clip-rule="evenodd" d="M25.4069 183.7C26.5232 182.067 28.3106 180.701 30.7985 180.745C33.2799 180.79 35.0623 182.169 36.1903 183.787C37.3096 185.393 37.8367 187.23 37.7418 188.387H37.0961C37.1763 187.409 36.73 185.663 35.6733 184.147C34.6253 182.644 33.0115 181.415 30.7873 181.375C28.5695 181.336 26.9608 182.543 25.9273 184.056C24.8843 185.582 24.4842 187.378 24.6122 188.386H23.9819C23.8299 187.188 24.3002 185.32 25.4069 183.7Z" fill="white"/>
<path fill-rule="evenodd" clip-rule="evenodd" d="M243.141 173.715C240.496 170.51 232.916 164.1 223.758 164.1C214.601 164.1 203.612 168.983 191.25 178.751V186.23H195.523H210.175H241.615H256.725H262.677C262.829 185.517 263.043 183.635 262.677 181.804C262.311 179.972 261.609 178.599 261.303 178.141C260.337 177.123 257.213 174.905 252.451 174.173C247.689 173.44 244.261 173.562 243.141 173.715ZM220.095 166.084V173.715H202.849C204.426 172.545 208.466 169.838 212.006 168.373C215.547 166.908 218.874 166.236 220.095 166.084ZM222.69 166.084V173.715H239.783C239.5 173.452 239.17 173.12 238.797 172.747C237.295 171.241 235.112 169.052 232.61 167.915C229.253 166.389 225.03 166.084 222.69 166.084Z" fill="#667AFA"/>
<path d="M259.013 179.972C259.013 178.751 260.489 178.293 261.303 178.293C261.506 178.547 262.005 179.331 262.371 180.43C262.737 181.529 262.829 182.719 262.829 183.329C261.659 182.77 259.013 182.117 259.013 179.972Z" fill="#282828"/>
<path d="M190.028 181.193C190.028 180.216 190.842 180.074 191.249 180.124V182.414C190.842 182.414 190.028 182.17 190.028 181.193Z" fill="#282828"/>
<circle cx="202.562" cy="186.278" r="4.8214" fill="#282828"/>
<circle cx="202.599" cy="186.316" r="1.85072" fill="white"/>
<circle cx="249.292" cy="186.278" r="4.8214" fill="#282828"/>
<circle cx="249.329" cy="186.316" r="1.85072" fill="white"/>
<rect x="222.995" y="176.004" width="4.2734" height="0.610486" rx="0.305243" fill="#282828"/>
<path d="M209.674 184.551H242.1L241.89 185.161H209.901L209.674 184.551Z" fill="#282828"/>
<path d="M256.26 184.856H262.852L262.799 185.467H256.494L256.26 184.856Z" fill="#282828"/>
<path d="M191.249 184.551H195.876L195.701 185.161H191.249V184.551Z" fill="#282828"/>
<g opacity="0.8">
<path d="M222.689 173.715V166.084C225.03 166.084 229.252 166.389 232.61 167.915C235.732 169.335 238.359 172.392 239.783 173.715H222.689Z" fill="white"/>
<path d="M220.095 173.715V166.084C218.874 166.237 215.547 166.908 212.006 168.373C208.465 169.838 204.426 172.545 202.849 173.715H220.095Z" fill="white"/>
</g>
<path fill-rule="evenodd" clip-rule="evenodd" d="M243.936 181.961C242.798 183.403 242.147 185.011 241.926 186.164H241.273C241.511 184.925 242.171 183.078 243.391 181.531C244.617 179.977 246.426 178.709 248.94 178.709C251.451 178.709 253.334 179.974 254.653 181.521C255.968 183.063 256.763 184.962 257.079 186.199H256.385C256.09 185.045 255.359 183.418 254.125 181.971C252.895 180.529 251.191 179.403 248.94 179.403C246.692 179.403 245.068 180.526 243.936 181.961Z" fill="white"/>
<path fill-rule="evenodd" clip-rule="evenodd" d="M197.461 182.245C196.421 183.582 195.987 185.131 195.89 186.198H195.178C195.284 185.026 195.776 183.28 196.913 181.819C198.061 180.344 199.862 179.167 202.544 179.167C205.223 179.167 207.12 180.342 208.392 181.805C209.655 183.258 210.304 184.997 210.516 186.167H209.771C209.576 185.099 209.037 183.605 207.868 182.26C206.708 180.925 204.993 179.861 202.544 179.861C200.097 179.861 198.49 180.922 197.461 182.245Z" fill="white"/>
</g>
<defs>
<clipPath id="clip0_1308_4096">
<rect x="0.361328" width="341.333" height="200" rx="16" fill="white"/>
</clipPath>
</defs>
</svg>
